<svg width="15" height="15" viewBox="0 0 15 15" fill="none" xmlns="http://www.w3.org/2000/svg">
<path d="M10.9884 8.75C11.3737 8.75 11.686 8.4302 11.686 8.03571C11.686 7.64122 11.3737 7.32143 10.9884 7.32143C10.6031 7.32143 10.2907 7.64122 10.2907 8.03571C10.2907 8.4302 10.6031 8.75 10.9884 8.75Z" fill="#828282"/>
<path d="M10.9884 11.6071C11.3737 11.6071 11.686 11.2873 11.686 10.8929C11.686 10.4984 11.3737 10.1786 10.9884 10.1786C10.6031 10.1786 10.2907 10.4984 10.2907 10.8929C10.2907 11.2873 10.6031 11.6071 10.9884 11.6071Z" fill="#828282"/>
<path d="M8.19767 8.03571C8.19767 8.4302 7.88532 8.75 7.5 8.75C7.11469 8.75 6.80233 8.4302 6.80233 8.03571C6.80233 7.64122 7.11469 7.32143 7.5 7.32143C7.88532 7.32143 8.19767 7.64122 8.19767 8.03571Z" fill="#828282"/>
<path d="M8.19767 10.8929C8.19767 11.2873 7.88532 11.6071 7.5 11.6071C7.11469 11.6071 6.80233 11.2873 6.80233 10.8929C6.80233 10.4984 7.11469 10.1786 7.5 10.1786C7.88532 10.1786 8.19767 10.4984 8.19767 10.8929Z" fill="#828282"/>
<path d="M4.01163 8.75C4.39694 8.75 4.7093 8.4302 4.7093 8.03571C4.7093 7.64122 4.39694 7.32143 4.01163 7.32143C3.62631 7.32143 3.31395 7.64122 3.31395 8.03571C3.31395 8.4302 3.62631 8.75 4.01163 8.75Z" fill="#828282"/>
<path d="M4.01163 11.6071C4.39694 11.6071 4.7093 11.2873 4.7093 10.8929C4.7093 10.4984 4.39694 10.1786 4.01163 10.1786C3.62631 10.1786 3.31395 10.4984 3.31395 10.8929C3.31395 11.2873 3.62631 11.6071 4.01163 11.6071Z" fill="#828282"/>
<path fill-rule="evenodd" clip-rule="evenodd" d="M4.01163 0C4.30061 0 4.53488 0.239847 4.53488 0.535714V1.08051C4.99674 1.07142 5.50558 1.07142 6.0652 1.07143H8.93471C9.49435 1.07142 10.0033 1.07142 10.4651 1.08051V0.535714C10.4651 0.239847 10.6994 0 10.9884 0C11.2774 0 11.5116 0.239847 11.5116 0.535714V1.12649C11.693 1.14065 11.8647 1.15844 12.0272 1.18081C12.8452 1.2934 13.5073 1.53063 14.0294 2.06517C14.5515 2.59972 14.7832 3.27754 14.8932 4.11498C15 4.9287 15 5.96843 15 7.2811V8.79029C15 10.103 15 11.1427 14.8932 11.9564C14.7832 12.7939 14.5515 13.4717 14.0294 14.0063C13.5073 14.5408 12.8452 14.778 12.0272 14.8906C11.2324 15 10.2169 15 8.93474 15H6.0653C4.78315 15 3.76757 15 2.97278 14.8906C2.15481 14.778 1.49275 14.5408 0.970635 14.0063C0.448521 13.4717 0.216812 12.7939 0.106838 11.9564C-1.94088e-05 11.1427 -1.07565e-05 10.103 2.21831e-07 8.7903V7.28113C-1.07565e-05 5.96845 -1.94088e-05 4.92871 0.106838 4.11498C0.216812 3.27754 0.448521 2.59972 0.970635 2.06517C1.49275 1.53063 2.15481 1.2934 2.97278 1.18081C3.13528 1.15844 3.30702 1.14065 3.48837 1.12649V0.535714C3.48837 0.239847 3.72264 0 4.01163 0ZM3.11222 2.24268C2.4103 2.3393 2.00589 2.5205 1.71063 2.82279C1.41537 3.12508 1.23839 3.53911 1.14402 4.25775C1.12804 4.37945 1.11467 4.50758 1.1035 4.64286H13.8965C13.8853 4.50758 13.872 4.37945 13.856 4.25775C13.7616 3.53911 13.5846 3.12508 13.2894 2.82279C12.9941 2.5205 12.5897 2.3393 11.8878 2.24268C11.1708 2.14399 10.2257 2.14286 8.89535 2.14286H6.10465C4.77431 2.14286 3.8292 2.14399 3.11222 2.24268ZM1.04651 7.32143C1.04651 6.71142 1.04674 6.18052 1.05564 5.71429H13.9444C13.9533 6.18052 13.9535 6.71142 13.9535 7.32143V8.75C13.9535 10.112 13.9524 11.0796 13.856 11.8137C13.7616 12.5323 13.5846 12.9463 13.2894 13.2486C12.9941 13.5509 12.5897 13.7321 11.8878 13.8287C11.1708 13.9274 10.2257 13.9286 8.89535 13.9286H6.10465C4.77431 13.9286 3.8292 13.9274 3.11222 13.8287C2.4103 13.7321 2.00589 13.5509 1.71063 13.2486C1.41537 12.9463 1.23839 12.5323 1.14402 11.8137C1.04762 11.0796 1.04651 10.112 1.04651 8.75V7.32143Z" fill="#828282"/>
</svg>
