<svg width="15" height="15" viewBox="0 0 15 15" fill="none" xmlns="http://www.w3.org/2000/svg">
<path d="M7.5 4L7.5 9M7.5 9L9 6.85714M7.5 9L6 6.85714" stroke="#828282" stroke-linecap="round" stroke-linejoin="round"/>
<path d="M10 11H7.5H5" stroke="#828282" stroke-linecap="round"/>
<path d="M1 7.5C1 4.43587 1 2.90381 1.9519 1.9519C2.90381 1 4.43587 1 7.5 1C10.5641 1 12.0962 1 13.0481 1.9519C14 2.90381 14 4.43587 14 7.5C14 10.5641 14 12.0962 13.0481 13.0481C12.0962 14 10.5641 14 7.5 14C4.43587 14 2.90381 14 1.9519 13.0481C1 12.0962 1 10.5641 1 7.5Z" stroke="#828282"/>
</svg>
