<svg width="24" height="24" viewBox="0 0 24 24" fill="none" xmlns="http://www.w3.org/2000/svg">
<path d="M11.9994 6.0769L11.9994 14.5384M11.9994 14.5384L14.5379 10.9121M11.9994 14.5384L9.46094 10.9121" stroke="black" stroke-width="1.5" stroke-linecap="round" stroke-linejoin="round"/>
<path d="M16.2311 17.9231H12.0003H7.76953" stroke="black" stroke-width="1.5" stroke-linecap="round"/>
<path d="M1 12C1 6.81455 1 4.22183 2.61091 2.61091C4.22183 1 6.81455 1 12 1C17.1855 1 19.7782 1 21.3891 2.61091C23 4.22183 23 6.81455 23 12C23 17.1854 23 19.7782 21.3891 21.3891C19.7782 23 17.1855 23 12 23C6.81455 23 4.22183 23 2.61091 21.3891C1 19.7782 1 17.1854 1 12Z" stroke="black" stroke-width="1.5"/>
</svg>
