<svg width="22" height="20" viewBox="0 0 22 20" fill="none" xmlns="http://www.w3.org/2000/svg">
<path fill-rule="evenodd" clip-rule="evenodd" d="M3.70301 1.45666e-06C3.71862 2.17192e-06 3.73429 2.88717e-06 3.75001 2.88717e-06L17.797 1.45666e-06C18.4639 -2.98954e-05 19.0341 -5.66579e-05 19.4898 0.0574241C19.9731 0.118386 20.4402 0.255295 20.8238 0.615244C21.2143 0.981544 21.3694 1.43856 21.4375 1.91405C21.5001 2.35084 21.5001 2.89397 21.5 3.51358L21.5 4.29012C21.5 4.77863 21.5 5.20095 21.4636 5.55311C21.4243 5.93206 21.3385 6.2876 21.1325 6.62893C20.9281 6.9677 20.6528 7.2136 20.3354 7.43404C20.0365 7.6417 19.6545 7.85669 19.2053 8.10955L16.2629 9.76594C15.5931 10.143 15.3599 10.2788 15.2042 10.4139C14.8466 10.7244 14.6418 11.0688 14.5456 11.5004C14.5045 11.6849 14.5 11.9172 14.5 12.6229L14.5 15.355C14.5001 16.2562 14.5001 17.0214 14.4074 17.6096C14.3087 18.2351 14.0798 18.8349 13.4798 19.2102C12.8934 19.577 12.2475 19.5433 11.6198 19.3942C11.0153 19.2507 10.2703 18.9594 9.37636 18.6099L9.28948 18.576C8.87076 18.4123 8.50411 18.269 8.21385 18.1191C7.9019 17.958 7.6122 17.7576 7.39055 17.4457C7.16641 17.1303 7.07655 16.792 7.03648 16.4463C6.99994 16.131 6.99997 15.7526 7 15.3306L7 12.6229C7 11.9172 6.99555 11.6849 6.95442 11.5004C6.8582 11.0688 6.65342 10.7244 6.29584 10.4139C6.14014 10.2788 5.90692 10.143 5.23714 9.76595L2.29471 8.10956C1.84549 7.8567 1.46353 7.6417 1.16458 7.43404C0.847243 7.2136 0.571909 6.9677 0.367472 6.62893C0.161485 6.2876 0.0757062 5.93206 0.0364477 5.55311C-3.56697e-05 5.20094 -1.72534e-05 4.77863 4.02545e-06 4.29012L5.09833e-06 3.56466C5.09833e-06 3.54757 3.78703e-06 3.53054 2.53533e-06 3.51357C-4.41351e-05 2.89396 -8.50856e-05 2.35084 0.0625065 1.91405C0.130644 1.43856 0.285759 0.981544 0.676179 0.615244C1.05983 0.255295 1.52695 0.118386 2.01024 0.0574241C2.46592 -5.66579e-05 3.03607 -2.98954e-05 3.70301 1.45666e-06ZM2.19796 1.54563C1.8643 1.58772 1.7582 1.65691 1.70251 1.70916C1.65359 1.75505 1.58904 1.83585 1.54734 2.12683C1.50181 2.44454 1.50001 2.87868 1.50001 3.56466V4.25448C1.50001 4.78869 1.50093 5.13278 1.52846 5.39854C1.5541 5.64605 1.59813 5.76507 1.65174 5.85391C1.7069 5.94532 1.7985 6.048 2.02034 6.20209C2.25406 6.36444 2.57336 6.54508 3.05993 6.81899L5.97296 8.45883C6.00024 8.47418 6.0271 8.48929 6.05357 8.50418C6.61227 8.81851 6.99278 9.03258 7.2792 9.28123C7.87056 9.79463 8.24997 10.4182 8.41847 11.174C8.50036 11.5413 8.50022 11.9531 8.50002 12.5345C8.50002 12.5635 8.5 12.593 8.5 12.6229V15.2924C8.5 15.7646 8.50117 16.055 8.52651 16.2736C8.54942 16.4713 8.58552 16.5378 8.6133 16.5769C8.64359 16.6195 8.70357 16.6838 8.90203 16.7863C9.11445 16.896 9.40708 17.0114 9.86923 17.192C10.8302 17.5677 11.4766 17.8185 11.9664 17.9348C12.445 18.0485 12.6027 17.9896 12.6843 17.9385C12.7523 17.896 12.8573 17.8097 12.9257 17.376C12.9978 16.9186 13 16.2734 13 15.2924V12.6229C13 12.593 13 12.5635 13 12.5345C12.9998 11.9531 12.9996 11.5413 13.0815 11.174C13.25 10.4182 13.6294 9.79463 14.2208 9.28123C14.5072 9.03258 14.8877 8.81852 15.4464 8.5042C15.4729 8.48931 15.4998 8.47418 15.5271 8.45882L18.4401 6.81899C18.9267 6.54508 19.246 6.36444 19.4797 6.20209C19.7015 6.048 19.7931 5.94532 19.8483 5.85391C19.9019 5.76507 19.9459 5.64605 19.9715 5.39854C19.9991 5.13278 20 4.78869 20 4.25448V3.56466C20 2.87868 19.9982 2.44454 19.9527 2.12683C19.911 1.83585 19.8464 1.75505 19.7975 1.70916C19.7418 1.65691 19.6357 1.58772 19.3021 1.54563C18.9515 1.50141 18.477 1.5 17.75 1.5H3.75001C3.02297 1.5 2.54854 1.50141 2.19796 1.54563Z" fill="#1C274C"/>
</svg>
