<svg width="22" height="22" viewBox="0 0 22 22" fill="none" xmlns="http://www.w3.org/2000/svg">
<path d="M13.6953 5.30021e-07C12.3278 -1.96761e-05 11.2254 -3.5964e-05 10.3585 0.116524C9.45836 0.237541 8.70048 0.496434 8.09857 1.09835C7.57363 1.62328 7.30839 2.26836 7.16916 3.02635C7.03387 3.76291 7.00799 4.6643 7.00196 5.74583C6.99966 6.16003 7.33357 6.49768 7.74778 6.49999C8.16199 6.5023 8.49964 6.16838 8.50194 5.75418C8.50803 4.66068 8.53643 3.8856 8.64448 3.29735C8.74859 2.73054 8.91577 2.40246 9.15923 2.15901C9.43599 1.88225 9.82456 1.7018 10.5583 1.60315C11.3137 1.50159 12.3148 1.5 13.7502 1.5H14.7502C16.1856 1.5 17.1867 1.50159 17.9421 1.60315C18.6759 1.7018 19.0644 1.88225 19.3412 2.15901C19.618 2.43577 19.7984 2.82435 19.8971 3.55812C19.9986 4.31347 20.0002 5.31459 20.0002 6.75V14.75C20.0002 16.1854 19.9986 17.1865 19.8971 17.9419C19.7984 18.6757 19.618 19.0642 19.3412 19.341C19.0644 19.6178 18.6759 19.7982 17.9421 19.8969C17.1867 19.9984 16.1856 20 14.7502 20H13.7502C12.3148 20 11.3137 19.9984 10.5583 19.8969C9.82456 19.7982 9.43599 19.6178 9.15923 19.341C8.91577 19.0975 8.74859 18.7695 8.64448 18.2027C8.53643 17.6144 8.50803 16.8393 8.50194 15.7458C8.49964 15.3316 8.16199 14.9977 7.74778 15C7.33357 15.0023 6.99966 15.34 7.00196 15.7542C7.00799 16.8357 7.03387 17.7371 7.16916 18.4736C7.30839 19.2316 7.57363 19.8767 8.09857 20.4017C8.70048 21.0036 9.45836 21.2625 10.3585 21.3835C11.2254 21.5 12.3278 21.5 13.6953 21.5H14.8051C16.1727 21.5 17.275 21.5 18.142 21.3835C19.0421 21.2625 19.7999 21.0036 20.4019 20.4017C21.0038 19.7997 21.2627 19.0419 21.3837 18.1418C21.5003 17.2748 21.5002 16.1725 21.5002 14.8049V6.69513C21.5002 5.32754 21.5003 4.22522 21.3837 3.35825C21.2627 2.45814 21.0038 1.70027 20.4019 1.09835C19.7999 0.496434 19.0421 0.237541 18.142 0.116524C17.275 -3.5964e-05 16.1727 -1.96761e-05 14.8051 5.30021e-07H13.6953Z" fill="white"/>
<path d="M13.75 10C14.1642 10 14.5 10.3358 14.5 10.75C14.5 11.1642 14.1642 11.5 13.75 11.5H2.77744L4.73809 13.1806C5.05259 13.4501 5.08901 13.9236 4.81944 14.2381C4.54988 14.5526 4.0764 14.589 3.76191 14.3194L0.261907 11.3194C0.0956715 11.177 0 10.9689 0 10.75C0 10.5311 0.0956715 10.323 0.261906 10.1806L3.76191 7.18056C4.0764 6.91099 4.54988 6.94741 4.81944 7.26191C5.08901 7.5764 5.05259 8.04988 4.73809 8.31944L2.77744 10H13.75Z" fill="white"/>
</svg>
