<svg width="14" height="14" viewBox="0 0 14 14" fill="none" xmlns="http://www.w3.org/2000/svg">
<path d="M7.12592 9.70787e-06C6.46313 -0.00319877 6.00175 0.788904 5.07899 2.37311L4.84033 2.78296C4.5781 3.23312 4.44695 3.45822 4.24716 3.60616C4.04737 3.75418 3.80152 3.80823 3.30973 3.91646L2.86197 4.01492C1.13143 4.39566 0.266157 4.58603 0.0463952 5.24284C-0.173367 5.89958 0.397933 6.58784 1.54052 7.96435L1.83613 8.32042C2.16082 8.71164 2.32316 8.90721 2.39269 9.14849C2.46225 9.38984 2.43113 9.64958 2.36891 10.1691L2.31223 10.642C2.09321 12.4701 1.9837 13.3841 2.51064 13.7933C3.03763 14.2024 3.85203 13.8357 5.48097 13.1022L5.90235 12.9124C6.36521 12.704 6.59667 12.5997 6.8395 12.601C7.08225 12.6021 7.30892 12.7085 7.76225 12.9214L8.17489 13.1152C9.7701 13.8643 10.5677 14.2389 11.1132 13.8349C11.6586 13.431 11.5906 12.5161 11.4548 10.6863L11.4196 10.2129C11.381 9.69293 11.3617 9.43291 11.4422 9.19234C11.5227 8.95178 11.6939 8.75777 12.0363 8.3699L12.348 8.01668C13.5529 6.65158 14.1554 5.96903 13.9656 5.31022C13.7756 4.65149 12.9192 4.45277 11.2064 4.05535L10.7632 3.95254C10.2765 3.8396 10.0331 3.78313 9.84009 3.63326C9.647 3.48346 9.52615 3.25708 9.28446 2.80449L9.06442 2.39241C8.2139 0.79962 7.78864 0.00322532 7.12592 9.70787e-06Z" fill="#ff9c1a"/>
</svg>
