<svg width="34" height="34" viewBox="0 0 34 34" fill="none" xmlns="http://www.w3.org/2000/svg">
<path fill-rule="evenodd" clip-rule="evenodd" d="M11.0698 12.2558C11.0698 8.98064 13.7248 6.32558 17 6.32558C20.2752 6.32558 22.9302 8.98064 22.9302 12.2558C22.9302 15.531 20.2752 18.186 17 18.186C13.7248 18.186 11.0698 15.531 11.0698 12.2558ZM17 8.69767C15.0349 8.69767 13.4419 10.2907 13.4419 12.2558C13.4419 14.2209 15.0349 15.814 17 15.814C18.9651 15.814 20.5581 14.2209 20.5581 12.2558C20.5581 10.2907 18.9651 8.69767 17 8.69767Z" fill="black"/>
<path fill-rule="evenodd" clip-rule="evenodd" d="M0 17C0 7.61116 7.61116 0 17 0C26.3888 0 34 7.61116 34 17C34 26.3888 26.3888 34 17 34C7.61116 34 0 26.3888 0 17ZM17 2.37209C8.92123 2.37209 2.37209 8.92123 2.37209 17C2.37209 21.0256 3.99819 24.6713 6.62937 27.3163C6.91465 25.7774 7.47516 24.3264 8.60021 23.1597C10.2831 21.4145 12.974 20.5581 16.9999 20.5581C21.0258 20.5581 23.7168 21.4145 25.3996 23.1597C26.5247 24.3265 27.0852 25.7775 27.3705 27.3164C30.0018 24.6715 31.6279 21.0256 31.6279 17C31.6279 8.92123 25.0788 2.37209 17 2.37209ZM25.2133 29.1062C25.0521 27.1897 24.636 25.7851 23.6921 24.8062C22.665 23.7411 20.762 22.9302 16.9999 22.9302C13.2379 22.9302 11.3348 23.7411 10.3078 24.8062C9.36386 25.7851 8.94771 27.1896 8.78659 29.1061C11.128 30.6978 13.9554 31.6279 17 31.6279C20.0445 31.6279 22.8719 30.6978 25.2133 29.1062Z" fill="black"/>
</svg>
