<svg width="21" height="20" viewBox="0 0 21 20" fill="none" xmlns="http://www.w3.org/2000/svg">
<path d="M8.37493 6.26053C8.78333 6.19134 9.17048 6.46633 9.23967 6.87472L9.76786 9.99257C9.83704 10.401 9.56206 10.7881 9.15366 10.8573C8.74527 10.9265 8.35811 10.6515 8.28893 10.2431L7.76074 7.12526C7.69155 6.71687 7.96654 6.32971 8.37493 6.26053Z" fill="black"/>
<path d="M13.7891 6.87472C13.8582 6.46633 14.2454 6.19134 14.6538 6.26053C15.0622 6.32971 15.3372 6.71687 15.268 7.12526L14.7398 10.2431C14.6706 10.6515 14.2835 10.9265 13.8751 10.8573C13.4667 10.7881 13.1917 10.401 13.2609 9.99257L13.7891 6.87472Z" fill="black"/>
<path fill-rule="evenodd" clip-rule="evenodd" d="M1.24896 0.292446C0.858196 0.155061 0.430045 0.360467 0.29266 0.751233C0.155274 1.142 0.36068 1.57015 0.751446 1.70754L1.01266 1.79937C1.68026 2.03409 2.11902 2.18964 2.44186 2.34805C2.74509 2.49683 2.87876 2.61726 2.96682 2.74612C3.05708 2.87821 3.12678 3.05963 3.16611 3.42298C3.20726 3.80319 3.20828 4.2984 3.20828 5.03835V7.75999C3.20828 9.21252 3.22191 10.2599 3.35897 11.0601C3.50529 11.9144 3.79742 12.526 4.34366 13.1022C4.93752 13.7285 5.69032 14.0012 6.58656 14.1283C7.44479 14.25 8.53464 14.25 9.88035 14.25L15.2861 14.25C16.0278 14.25 16.6518 14.25 17.1568 14.1882C17.6925 14.1227 18.1811 13.9793 18.6076 13.6318C19.0341 13.2842 19.2731 12.8346 19.4455 12.3232C19.6079 11.841 19.7339 11.2299 19.8836 10.5035L20.3925 8.03414L20.3935 8.02955L20.4039 7.97726C20.5686 7.15237 20.7071 6.45848 20.7416 5.90037C20.7777 5.31417 20.711 4.73616 20.3292 4.23977C20.0942 3.93435 19.7639 3.76144 19.4634 3.65586C19.1569 3.54817 18.8103 3.48587 18.4606 3.44677C17.7735 3.36997 16.9389 3.36998 16.1203 3.36999L4.66809 3.36999C4.6648 3.33324 4.66124 3.29709 4.6574 3.26156C4.60367 2.76518 4.48725 2.31246 4.20527 1.89982C3.92109 1.48396 3.54324 1.21762 3.10261 1.00142C2.69052 0.799218 2.16689 0.615143 1.55036 0.398411L1.24896 0.292446ZM4.70828 4.86999H16.089C16.9454 4.86999 17.6991 4.87099 18.2939 4.93748C18.5895 4.97052 18.8107 5.01642 18.9661 5.07104C19.0931 5.11568 19.1361 5.15213 19.1423 5.1574C19.2037 5.23881 19.2704 5.38651 19.2444 5.80796C19.217 6.25153 19.1005 6.84379 18.9229 7.73372L18.9225 7.73594L18.4237 10.1561C18.2623 10.9389 18.1537 11.4593 18.024 11.8441C17.9009 12.2095 17.7853 12.3669 17.66 12.469C17.5348 12.571 17.3573 12.6525 16.9746 12.6993C16.5714 12.7487 16.0399 12.75 15.2406 12.75H9.93768C8.5209 12.75 7.53783 12.7482 6.79716 12.6432C6.08235 12.5418 5.70473 12.3576 5.43219 12.0701C5.11202 11.7325 4.93933 11.4018 4.83744 10.8069C4.72628 10.1578 4.70828 9.24903 4.70828 7.75999L4.70828 4.86999Z" fill="black"/>
<path fill-rule="evenodd" clip-rule="evenodd" d="M6.5002 19.75C5.25756 19.75 4.2502 18.7426 4.2502 17.5C4.2502 16.2573 5.25756 15.25 6.5002 15.25C7.74285 15.25 8.7502 16.2573 8.7502 17.5C8.7502 18.7426 7.74285 19.75 6.5002 19.75ZM5.7502 17.5C5.7502 17.9142 6.08599 18.25 6.5002 18.25C6.91442 18.25 7.2502 17.9142 7.2502 17.5C7.2502 17.0858 6.91442 16.75 6.5002 16.75C6.08599 16.75 5.7502 17.0858 5.7502 17.5Z" fill="black"/>
<path fill-rule="evenodd" clip-rule="evenodd" d="M15.5002 19.7501C14.2576 19.7501 13.2502 18.7427 13.2502 17.5001C13.2502 16.2574 14.2576 15.2501 15.5002 15.2501C16.7428 15.2501 17.7502 16.2574 17.7502 17.5001C17.7502 18.7427 16.7428 19.7501 15.5002 19.7501ZM14.7502 17.5001C14.7502 17.9143 15.086 18.2501 15.5002 18.2501C15.9144 18.2501 16.2502 17.9143 16.2502 17.5001C16.2502 17.0859 15.9144 16.7501 15.5002 16.7501C15.086 16.7501 14.7502 17.0859 14.7502 17.5001Z" fill="black"/>
</svg>
