<svg width="18" height="16" viewBox="0 0 18 16" fill="none" xmlns="http://www.w3.org/2000/svg">
<path fill-rule="evenodd" clip-rule="evenodd" d="M5.9211 3.29287C6.31164 3.15483 6.74013 3.35953 6.87817 3.75007C7.1874 4.62497 8.02184 5.25 9.00033 5.25C9.97883 5.25 10.8133 4.62497 11.1225 3.75007C11.2605 3.35953 11.689 3.15483 12.0796 3.29287C12.4701 3.43091 12.6748 3.8594 12.5368 4.24993C12.0223 5.70541 10.6343 6.75 9.00033 6.75C7.36639 6.75 5.97835 5.70541 5.46391 4.24993C5.32587 3.8594 5.53057 3.43091 5.9211 3.29287ZM9.36073 1.5H8.63955C7.01375 1.5 5.93165 1.50267 5.11211 1.60393C4.33378 1.70009 3.97502 1.86728 3.72326 2.07623C3.47149 2.28517 3.24105 2.60698 3.00309 3.35425C2.75254 4.14109 2.5505 5.20417 2.25088 6.80212C1.8309 9.04202 1.54933 10.5634 1.49931 11.7093C1.4511 12.8139 1.63619 13.2835 1.89607 13.5966C2.15595 13.9097 2.58337 14.1782 3.67789 14.3344C4.81341 14.4964 6.36063 14.5 8.63955 14.5H9.36073C11.6397 14.5 13.1869 14.4964 14.3224 14.3344C15.4169 14.1782 15.8443 13.9097 16.1042 13.5966C16.3641 13.2835 16.5492 12.8139 16.501 11.7093C16.451 10.5634 16.1694 9.04202 15.7494 6.80213C15.4498 5.20417 15.2477 4.14109 14.9972 3.35425C14.7592 2.60698 14.5288 2.28517 14.277 2.07623C14.0253 1.86728 13.6665 1.70009 12.8882 1.60393C12.0686 1.50267 10.9865 1.5 9.36073 1.5ZM2.7653 0.921963C1.65441 1.84393 1.36179 3.40452 0.776573 6.52569C-0.0463515 10.9146 -0.457812 13.1091 0.74181 14.5545C1.94143 16 4.17414 16 8.63955 16H9.36073C13.8261 16 16.0588 16 17.2585 14.5545C18.4581 13.1091 18.0466 10.9146 17.2237 6.52569C16.6385 3.40452 16.3459 1.84393 15.235 0.921963C14.1241 0 12.5363 0 9.36073 0H8.63955C5.46398 0 3.8762 0 2.7653 0.921963Z" fill="black"/>
</svg>
