<?xml version="1.0" encoding="UTF-8"?>
<svg id="_Слой_2" data-name="Слой 2" xmlns="http://www.w3.org/2000/svg" viewBox="0 0 363.06 253.83">
  <defs>
    <style>
      .cls-1 {
        fill: #fff;
        stroke-width: 4px;
      }

      .cls-1, .cls-2 {
        stroke: #000;
        stroke-miterlimit: 10;
      }

      .cls-2 {
        font-family: Inte, sans-serif;
        font-size: 63.6px;
        font-weight: 600;
        stroke-width: .5px;
      }
    </style>
  </defs>
  <g id="_Слой_1-2" data-name="Слой 1">
    <g>
      <path class="cls-1" d="m197.23,229.06c-56.32,38.72-133.66,24.42-172.38-31.9C6.08,169.87-.93,136.91,5.1,104.35c6.03-32.56,24.37-60.82,51.65-79.59C78.16,10.05,102.6,2.99,126.81,2.99c39.48,0,78.32,18.77,102.32,53.68,8.95,13.02,15.01,27.16,18.43,41.69h1.02c-3.44-14.72-9.56-29.06-18.63-42.25C190.91-.67,112.95-15.08,56.19,23.95,28.69,42.87,10.19,71.36,4.12,104.17c-6.07,32.82,1,66.04,19.91,93.54,24.2,35.19,63.35,54.11,103.14,54.11,24.4,0,49.04-7.12,70.62-21.95,23.32-16.04,39.45-38.66,47.69-63.67h-1.04c-8.21,24.69-24.17,47.01-47.21,62.85Z"/>
      <path class="cls-1" d="m174.63,196.2c-38.21,26.27-90.66,16.56-116.93-21.64-12.73-18.51-17.48-40.86-13.4-62.95,4.09-22.09,16.53-41.26,35.04-53.98,14.52-9.99,31.1-14.77,47.52-14.77,26.77,0,53.12,12.73,69.4,36.41,4.17,6.06,7.42,12.48,9.8,19.09h1.06c-2.42-6.81-5.76-13.42-10.04-19.65-26.58-38.65-79.65-48.47-118.31-21.89-18.72,12.88-31.32,32.27-35.45,54.62-4.14,22.35.68,44.96,13.55,63.69,16.48,23.96,43.13,36.84,70.23,36.84,16.61,0,33.39-4.85,48.08-14.95,11.87-8.16,20.99-18.83,27.2-30.81h-1.1c-6.13,11.65-15.07,22.03-26.65,29.99Z"/>
    </g>
    <text class="cls-2" transform="translate(105.56 156.85)"><tspan x="0" y="0">IT CAFE</tspan></text>
  </g>
</svg>
