<svg width="24" height="24" viewBox="0 0 24 24" fill="none" xmlns="http://www.w3.org/2000/svg">
<path d="M15.3636 10V6.25C15.3636 5.65326 15.0619 5.08097 14.5249 4.65901C13.9879 4.23705 13.2595 4 12.5 4H4.86364C4.10415 4 3.37578 4.23705 2.83874 4.65901C2.3017 5.08097 2 5.65326 2 6.25V19.75C2 20.3467 2.3017 20.919 2.83874 21.341C3.37578 21.7629 4.10415 22 4.86364 22H12.5C13.2595 22 13.9879 21.7629 14.5249 21.341C15.0619 20.919 15.3636 20.3467 15.3636 19.75V16M19.1818 16L23 13M23 13L19.1818 10M23 13H6.77273" stroke="white" stroke-width="1.5" stroke-linecap="round" stroke-linejoin="round"/>
</svg>
